<svg xmlns="http://www.w3.org/2000/svg" version="1.1" xmlns:xlink="http://www.w3.org/1999/xlink" xmlns:svgjs="http://svgjs.dev/svgjs" width="1500" height="1730" viewBox="0 0 1500 1730"><g transform="matrix(1,0,0,1,-3.1262733038631723,-2.7903225806452383)"><svg viewBox="0 0 215 248" data-background-color="#000000" preserveAspectRatio="xMidYMid meet" height="1730" width="1500" xmlns="http://www.w3.org/2000/svg" xmlns:xlink="http://www.w3.org/1999/xlink"><g id="tight-bounds" transform="matrix(1,0,0,1,0.44809917355371454,0.4000000000000057)"><svg viewBox="0 0 214.10380165289254 247.2" height="247.2" width="214.10380165289254"><g><svg viewBox="0 0 214.10380165289254 247.2" height="247.2" width="214.10380165289254"><g><svg viewBox="0 0 214.10380165289254 247.2" height="247.2" width="214.10380165289254"><g id="textblocktransform"><svg viewBox="0 0 214.10380165289254 247.2" height="247.2" width="214.10380165289254" id="textblock"><g><svg viewBox="0 0 214.10380165289254 247.2" height="247.2" width="214.10380165289254"><g transform="matrix(1,0,0,1,0,0)"><svg width="214.10380165289254" viewBox="2.54 -29.1 25.59 29.540000000000003" height="247.2" data-palette-color="url(#3ee28c46-2ac7-4fe8-8118-0a2aefb05419)"></svg></g></svg></g></svg></g></svg></g></svg></g><defs></defs><mask id="29b9a484-ce2a-4aaf-8394-76f86ff3fb47"><g id="SvgjsG6174"><svg viewBox="0 0 214.10380165289254 247.2" height="247.2" width="214.10380165289254"><g><svg viewBox="0 0 214.10380165289254 247.2" height="247.2" width="214.10380165289254"><g><svg viewBox="0 0 214.10380165289254 247.2" height="247.2" width="214.10380165289254"><g id="SvgjsG6173"><svg viewBox="0 0 214.10380165289254 247.2" height="247.2" width="214.10380165289254" id="SvgjsSvg6172"><g><svg viewBox="0 0 214.10380165289254 247.2" height="247.2" width="214.10380165289254"><g transform="matrix(1,0,0,1,0,0)"><svg width="214.10380165289254" viewBox="2.54 -29.1 25.59 29.540000000000003" height="247.2" data-palette-color="url(#3ee28c46-2ac7-4fe8-8118-0a2aefb05419)"><path d="M17.97 0.44L17.97 0.44Q13.72 0.44 10.23-1.2 6.74-2.83 4.64-6.08 2.54-9.33 2.54-14.11L2.54-14.11Q2.54-17.19 3.61-19.9 4.69-22.61 6.76-24.68 8.84-26.76 11.82-27.93 14.79-29.1 18.6-29.1L18.6-29.1Q20.61-29.1 22.85-28.71 25.1-28.32 26.86-27.59L26.86-27.59 27.2-20.9 25-20.7 23.54-25.34Q22.61-25.98 21.09-26.29 19.58-26.61 18.16-26.61L18.16-26.61Q14.5-26.61 12.18-25.02 9.86-23.44 8.76-20.8 7.67-18.16 7.67-14.99L7.67-14.99Q7.67-10.84 9.11-7.96 10.55-5.08 13.01-3.61 15.48-2.15 18.46-2.15L18.46-2.15Q19.97-2.15 21.26-2.49 22.56-2.83 23.73-3.52L23.73-3.52 25.88-8.11 28.13-7.86 26.76-1.71Q25.05-0.88 22.78-0.22 20.51 0.44 17.97 0.44Z" opacity="1" transform="matrix(1,0,0,1,0,0)" fill="white" class="wordmark-text-0" id="SvgjsPath6171"></path></svg></g></svg></g></svg></g></svg></g></svg></g><defs><mask></mask></defs></svg><rect width="214.10380165289254" height="247.2" fill="black" stroke="none" visibility="hidden"></rect></g></mask><linearGradient x1="0" x2="1" y1="0.548" y2="0.55" id="3ee28c46-2ac7-4fe8-8118-0a2aefb05419"><stop stop-color="#ff6cab" offset="0"></stop><stop stop-color="#7366ff" offset="1"></stop></linearGradient><rect width="214.10380165289254" height="247.2" fill="url(#3ee28c46-2ac7-4fe8-8118-0a2aefb05419)" mask="url(#29b9a484-ce2a-4aaf-8394-76f86ff3fb47)" data-fill-palette-color="primary"></rect></svg><rect width="214.10380165289254" height="247.2" fill="none" stroke="none" visibility="hidden"></rect></g></svg></g></svg>